<svg width="232" height="120" viewBox="0 0 232 120" fill="none" xmlns="http://www.w3.org/2000/svg">
<g clip-path="url(#clip0_63_1184)">
<g clip-path="url(#clip1_63_1184)">
<path fill-rule="evenodd" clip-rule="evenodd" d="M58.6714 67.1137H69.0691V64.2852H59.6714L58.6714 67.1137Z" fill="white"/>
<path fill-rule="evenodd" clip-rule="evenodd" d="M53 78.0507H69.0692V74.2793H54.2772L53 78.0507Z" fill="white"/>
<path fill-rule="evenodd" clip-rule="evenodd" d="M63.3977 59.7598H53L53.0003 62.5883H62.3975L63.3977 59.7598Z" fill="white"/>
<path fill-rule="evenodd" clip-rule="evenodd" d="M69.0692 48.8223H53V52.5937H67.7918L69.0692 48.8223Z" fill="white"/>
<path fill-rule="evenodd" clip-rule="evenodd" d="M55.8359 72.583H69.0694V68.8115L56.9638 68.8131L55.8359 72.583Z" fill="white"/>
<path fill-rule="evenodd" clip-rule="evenodd" d="M66.2335 54.292H53V58.0634L65.1056 58.0625L66.2335 54.292Z" fill="white"/>
<path fill-rule="evenodd" clip-rule="evenodd" d="M71.7585 77.2521V54.4795L70.9595 54.4798V78.0509H109.715V77.2521H71.7585Z" fill="white"/>
<path fill-rule="evenodd" clip-rule="evenodd" d="M158.825 59.6294C158.854 59.3348 158.867 59.0287 158.867 58.7232C158.867 53.2536 154.424 48.8223 148.943 48.8223C143.456 48.8223 139.017 53.2536 139.017 58.7232C139.017 64.1952 143.456 68.6223 148.943 68.6223C153.502 68.6223 157.34 65.5588 158.504 61.3819H154.672C153.663 63.5333 151.474 65.0226 148.943 65.0226C145.762 65.0226 143.134 62.6793 142.694 59.6294H158.825ZM148.943 52.423C151.438 52.423 153.592 53.8801 154.613 55.9749H143.264C144.295 53.8801 146.448 52.423 148.943 52.423Z" fill="white"/>
<path fill-rule="evenodd" clip-rule="evenodd" d="M179.663 48.8223L161.704 48.8255V68.6223H165.306V52.4274H179.663V48.8223H179.663Z" fill="white"/>
<path fill-rule="evenodd" clip-rule="evenodd" d="M121.53 48.8223C119.131 48.8223 116.924 49.6948 115.21 51.1468V48.8622H111.605V78.0509H115.21V66.8367C116.924 68.2874 119.131 69.1558 121.53 69.1558C127.014 69.1558 131.456 64.6046 131.456 58.9895C131.456 53.3738 127.014 48.8223 121.53 48.8223ZM121.53 65.4634C118.046 65.4634 115.214 62.5679 115.214 58.9892C115.214 55.4193 118.046 52.5207 121.53 52.5207C125.02 52.5207 127.85 55.4193 127.85 58.9892C127.85 62.5679 125.02 65.4634 121.53 65.4634Z" fill="white"/>
<path fill-rule="evenodd" clip-rule="evenodd" d="M108.726 59.6294C108.754 59.3348 108.77 59.0287 108.77 58.7232C108.77 53.2536 104.326 48.8223 98.8397 48.8223C93.3633 48.8223 88.9194 53.2536 88.9194 58.7232C88.9194 64.1952 93.3633 68.6223 98.8397 68.6223C103.37 68.6223 107.191 65.6027 108.376 61.4649H104.532C103.511 63.5721 101.348 65.0226 98.8397 65.0226C95.6618 65.0226 93.0438 62.6793 92.5991 59.6294H108.726ZM98.8397 52.423C101.341 52.423 103.492 53.8801 104.513 55.9751H93.1691C94.191 53.8801 96.3439 52.423 98.8397 52.423Z" fill="white"/>
<path fill-rule="evenodd" clip-rule="evenodd" d="M139.963 49.2237H137.198V40.3369H133.405V49.2237H131.456V52.9199H133.405V69.5655H137.198V52.9199H139.963V49.2237Z" fill="white"/>
<path fill-rule="evenodd" clip-rule="evenodd" d="M88.9041 52.4207V52.3955L88.9192 52.3822L88.9043 52.3742V48.8223H88.8874H86.0217H70.9595V52.4207H84.4009L74.9548 65.0121V68.6223L74.9563 68.6199H88.8654V65.0549H79.4105L88.8874 52.4207H88.9043H88.9041Z" fill="white"/>
<path fill-rule="evenodd" clip-rule="evenodd" d="M178.879 41.2041V47.8798H179.663V40.3369H139.963V41.2041H178.879Z" fill="white"/>
<path fill-rule="evenodd" clip-rule="evenodd" d="M149.307 73.3369L147.052 78.0512H147.715L148.28 76.8634H150.551L151.115 78.0512H151.778L149.523 73.3369H149.307ZM148.535 76.3229L149.415 74.4061L150.295 76.3229H148.535Z" fill="white"/>
<path fill-rule="evenodd" clip-rule="evenodd" d="M173.017 73.3369L170.762 78.0512H171.425L171.99 76.8634H174.261L174.825 78.0512H175.488L173.233 73.3369H173.017ZM172.246 76.3229L173.125 74.4061L174.005 76.3229H172.246Z" fill="white"/>
<path fill-rule="evenodd" clip-rule="evenodd" d="M177.378 77.5135V73.3614V73.3369H176.828V78.0512H178.718V77.5135H177.378Z" fill="white"/>
<path fill-rule="evenodd" clip-rule="evenodd" d="M122.003 73.3614V78.0512H122.948V73.3614V73.3369H122.003V73.3614Z" fill="white"/>
<path fill-rule="evenodd" clip-rule="evenodd" d="M127.53 73.3614V76.8166L124.506 73.3614H124.287V78.0477H124.825V74.5366L127.902 78.0512H128.068V73.3614V73.3369H127.53V73.3614Z" fill="white"/>
<path fill-rule="evenodd" clip-rule="evenodd" d="M129.407 73.3614V73.8749H130.53V78.0512H131.12V73.8749H132.243V73.3614V73.3369H129.407V73.3614Z" fill="white"/>
<path fill-rule="evenodd" clip-rule="evenodd" d="M133.583 73.3614V78.0512H136.418V77.5138H134.241V75.7316H136.355V75.194H134.241V73.8749H136.418V73.3614V73.3369H133.583V73.3614Z" fill="white"/>
<path fill-rule="evenodd" clip-rule="evenodd" d="M140.249 74.6811C140.249 74.2308 140.031 73.7869 139.65 73.5556C139.454 73.4415 139.237 73.3876 139.015 73.3614C138.826 73.3392 138.633 73.3369 138.447 73.3369H137.757V78.0512H138.325V76.0567H138.561L139.903 78.0512H140.593L139.154 76.0002C139.813 75.9192 140.248 75.3565 140.248 74.6811M138.507 75.5691H138.326V73.8621H138.477C139.039 73.8621 139.717 73.9687 139.717 74.7064C139.717 75.4564 139.088 75.5691 138.507 75.5691Z" fill="white"/>
<path fill-rule="evenodd" clip-rule="evenodd" d="M145.174 73.3614V76.8166L142.151 73.3614H141.932V78.0477H142.471V74.5366L145.547 78.0512H145.713V73.3614V73.3369H145.174V73.3614Z" fill="white"/>
<path fill-rule="evenodd" clip-rule="evenodd" d="M153.117 73.3614V73.8749H154.24V78.0512H154.83V73.8749H155.953V73.3614V73.3369H153.117V73.3614Z" fill="white"/>
<path fill-rule="evenodd" clip-rule="evenodd" d="M157.292 73.3614V78.0512H158.238V73.3614V73.3369H157.292V73.3614Z" fill="white"/>
<path fill-rule="evenodd" clip-rule="evenodd" d="M168.885 73.3614V76.8166L165.861 73.3614H165.642V78.0477H166.181V74.5366L169.256 78.0512H169.423V73.3614V73.3369H168.885V73.3614Z" fill="white"/>
<path fill-rule="evenodd" clip-rule="evenodd" d="M162.673 73.4562C162.441 73.3799 162.195 73.3369 161.94 73.3369C161.684 73.3369 161.439 73.3799 161.207 73.4562C160.267 73.7669 159.577 74.6544 159.577 75.6943C159.577 76.8003 160.295 77.681 161.277 77.9584C161.487 78.0182 161.709 78.0512 161.94 78.0512C162.17 78.0512 162.392 78.0182 162.603 77.9584C163.584 77.6813 164.303 76.8005 164.303 75.6943C164.303 74.6544 163.613 73.7672 162.673 73.4562ZM161.94 77.5234C160.965 77.5234 160.14 76.7254 160.14 75.6941C160.14 74.6979 160.881 73.8645 161.94 73.8645C162.998 73.8645 163.74 74.6982 163.74 75.6941C163.74 76.7257 162.915 77.5234 161.94 77.5234Z" fill="white"/>
</g>
</g>
<defs>
<clipPath id="clip0_63_1184">
<rect width="127" height="39" fill="white" transform="translate(53 40)"/>
</clipPath>
<clipPath id="clip1_63_1184">
<rect width="126.663" height="37.7143" fill="white" transform="translate(53 40.3369)"/>
</clipPath>
</defs>
</svg>
