<svg width="193" height="100" viewBox="0 0 232 120" fill="none" xmlns="http://www.w3.org/2000/svg">
<g clip-path="url(#clip0_63_1187)">
<g clip-path="url(#clip1_63_1187)">
<path fill-rule="evenodd" clip-rule="evenodd" d="M104.37 44.0469C103.837 44.0469 103.6 44.3616 103.402 44.8119C90.9529 73.2278 89.9082 75.4742 89.9082 75.4742C96.963 75.4742 96.963 75.4742 96.963 75.4742C98.4312 71.9092 98.4312 71.9092 98.4312 71.9092C109.06 71.9092 109.06 71.9092 109.06 71.9092C110.534 75.4742 110.534 75.4742 110.534 75.4742C118.831 75.4742 118.831 75.4742 118.831 75.4742C118.831 75.4742 118.122 74.0146 105.338 44.8119C105.14 44.3616 104.903 44.0469 104.37 44.0469M100.675 66.4724C103.737 59.0334 103.737 59.0334 103.737 59.0334C106.811 66.4724 106.811 66.4724 106.811 66.4724H100.675ZM139.611 61.1985C142.036 59.7659 143.873 57.2645 143.873 53.678C143.873 50.8618 142.735 48.5395 140.755 46.9716C138.748 45.3763 136.427 44.5134 131.682 44.5134C121.531 44.5134 121.531 44.5134 121.531 44.5134C121.531 75.4742 121.531 75.4742 121.531 75.4742C129.032 75.4742 129.032 75.4742 129.032 75.4742C129.032 63.9493 129.032 63.9493 129.032 63.9493C131.358 63.9493 131.358 63.9493 131.358 63.9493C133.887 63.9493 135.163 64.8988 136.224 67.4112C137.12 69.538 137.753 72.0612 138.577 75.4742C146.941 75.4742 146.941 75.4742 146.941 75.4742C145.753 71.9635 145.159 70.3031 144.269 67.8289C143.048 64.4432 141.569 62.3596 139.611 61.1985M134.816 57.4003C133.909 58.0893 132.738 58.3063 130.632 58.3063C129.032 58.3063 129.032 58.3063 129.032 58.3063C129.032 58.3063 129.015 50.0535 129.032 50.0535C130.632 50.0535 130.632 50.0535 130.632 50.0535C132.831 50.0535 133.925 50.2922 134.811 50.9541C135.823 51.7137 136.273 52.8532 136.273 54.1718C136.273 55.6096 135.768 56.6677 134.816 57.4003ZM73.082 57.6335C60.3414 45.0561 60.3414 45.0561 60.3414 45.0561C59.9565 44.6817 59.5716 44.4159 58.9668 44.4159C58.9668 75.4742 58.9668 75.4742 58.9668 75.4742C65.5158 75.4742 65.5158 75.4742 65.5158 75.4742C65.5158 60.6232 65.5158 60.6232 65.5158 60.6232C73.082 68.0894 73.082 68.0894 73.082 68.0894C80.6537 60.6232 80.6537 60.6232 80.6537 60.6232C80.6537 75.4742 80.6537 75.4742 80.6537 75.4742C87.2028 75.4742 87.2028 75.4742 87.2028 75.4742C87.2028 44.4159 87.2028 44.4159 87.2028 44.4159C86.5979 44.4159 86.213 44.6817 85.8281 45.0561L73.082 57.6335ZM170.294 60.0264C166.951 56.8902 160.886 56.3529 158.488 54.5082C157.548 53.7865 157.213 52.723 157.521 51.7083C157.9 50.4496 159.17 49.6248 161.034 49.6248C163.602 49.6248 165.906 50.7805 167.501 52.6525C171.784 48.2303 171.784 48.2303 171.784 48.2303C169.26 45.5825 165.23 43.9873 160.985 43.9873C156.036 43.9873 152.302 46.3476 150.636 50.1131C149.344 53.0377 149.789 56.0871 151.378 58.2793C154.452 62.5224 160.941 62.6526 163.751 64.8283C164.751 65.6043 165.312 66.8576 164.713 68.2088C164.196 69.3916 162.893 70.1946 160.759 70.2489C157.801 70.3194 155.162 68.9521 153.221 66.5593C148.931 70.9868 148.931 70.9868 148.931 70.9868C151.769 74.3781 155.992 76.0114 161.095 76.0114C166.055 76.0114 170.41 74.1068 172.186 70.0481C173.742 66.4996 173.181 62.7286 170.294 60.0264" fill="white"/>
</g>
</g>
<defs>
<clipPath id="clip0_63_1187">
<rect width="232" height="120" fill="white"/>
</clipPath>
<clipPath id="clip1_63_1187">
<rect width="116" height="34" fill="white" transform="translate(58 43)"/>
</clipPath>
</defs>
</svg>
