<svg width="232" height="120" viewBox="0 0 232 120" fill="none" xmlns="http://www.w3.org/2000/svg">
<g clip-path="url(#clip0_63_1225)">
<path fill-rule="evenodd" clip-rule="evenodd" d="M68.1402 45.3113C74.2852 48.519 78.4829 54.9141 78.4829 62.2857C78.4829 69.6573 74.2852 76.0726 68.1402 79.2606V77.0687C70.4902 75.6733 72.4781 73.7209 73.9246 71.4101L68.1402 69.0796V65.5332L74.4863 70.4543C75.8119 68.0235 76.555 65.2539 76.555 62.2852C76.555 56.0292 73.1805 50.5309 68.1402 47.5022V45.3113ZM59.2034 43.1396C62.4168 43.1396 65.4489 43.917 68.1402 45.3113V47.5032C65.6699 46.0282 62.778 45.1521 59.7255 45.0522L61.9344 60.732L68.1402 65.5337V69.0801L59.1628 65.4737L50.2458 69.0997V65.573L56.4918 60.7315L58.6808 45.0517C55.5878 45.1515 52.7162 46.0282 50.2458 47.5022V45.3113C52.9173 43.917 55.9697 43.1396 59.2034 43.1396ZM68.1402 79.2606C65.4489 80.6549 62.4163 81.4514 59.2034 81.4514C55.9702 81.4514 52.9178 80.6549 50.2463 79.2802V77.0687C52.8573 78.642 55.9296 79.5388 59.2034 79.5388C62.457 79.5388 65.5099 78.642 68.1402 77.0687V79.2606ZM50.2463 79.2802C44.0805 76.0726 39.8833 69.6573 39.8833 62.2857C39.8833 54.9141 44.0805 48.519 50.2463 45.3113V47.5032C45.1852 50.5314 41.8113 56.0101 41.8113 62.2857C41.8113 65.2539 42.5746 68.0638 43.9002 70.4941L50.2463 65.573V69.0997L44.4822 71.4499C45.9282 73.7421 47.8963 75.6738 50.2463 77.0687V79.2802Z" fill="white"/>
<path d="M137.718 56.0918C136.834 56.325 136.037 56.4654 135.047 56.571V56.8694C136.161 56.8694 136.303 56.9931 136.303 57.9067V60.9784C135.648 59.9253 135.134 59.6097 134.18 59.6097C132.286 59.6097 130.96 61.3822 130.96 63.911C130.96 66.4398 132.304 68.2137 134.233 68.2137C135.241 68.2137 135.931 67.7581 136.426 66.7747C136.497 67.4413 136.498 67.5118 136.674 68.1793C137.4 67.9507 137.7 67.8796 138.744 67.7575L139.009 67.7216V67.4232C137.824 67.3883 137.718 67.3001 137.718 66.2295V56.0918ZM89.9826 56.2195C89.3101 56.2902 88.9556 56.3084 88.3015 56.3084C87.8057 56.3084 87.5409 56.2914 86.8517 56.2382V56.6757C88.0719 56.7464 88.3189 56.9222 88.3189 57.7303V57.8364L87.9474 66.4576C87.9122 67.4062 87.7363 67.546 86.4976 67.6341V68.0559C87.418 67.9852 87.7704 67.9684 88.2654 67.9684C88.7612 67.9684 89.1144 67.9852 90.0173 68.0559V67.6341C88.7786 67.546 88.5487 67.3877 88.5487 66.6155V66.4576L88.9028 57.3443L91.8039 65.1234L92.0164 65.7374L92.265 66.4218L92.5122 67.1076L92.7073 67.67H92.9733L93.167 67.0904L93.3968 66.4218L93.644 65.7733L93.8565 65.1922L96.7764 57.3615L96.9354 66.4576V66.5452C96.9354 67.3707 96.6703 67.5634 95.4668 67.6341V68.0559C96.5815 67.9503 97.0058 67.9153 97.6783 67.9153C98.35 67.9153 98.7752 67.9503 99.8899 68.0559V67.6341C98.616 67.546 98.4562 67.4062 98.4386 66.4577L98.245 57.8364V57.713C98.245 56.9225 98.51 56.7464 99.7136 56.6757V56.2382C99.041 56.2914 98.758 56.3084 98.3158 56.3084C97.7848 56.3084 97.4139 56.2902 96.6174 56.2195L93.274 65.1061L89.9826 56.2195ZM158.803 56.2898V56.7302C160.077 56.8 160.255 56.9395 160.255 57.8881V66.4045C160.255 67.3531 160.113 67.4754 158.803 67.581V68.0028H163.28C164.589 68.0028 165.297 67.8451 166.039 67.3888C166.925 66.8268 167.508 65.7549 167.508 64.6485C167.508 63.7008 167.101 62.8412 166.411 62.3142C166.039 62.0332 165.65 61.8748 165.013 61.7518C166.287 61.278 166.96 60.3821 166.96 59.1535C166.96 58.2399 166.57 57.4312 165.898 56.9225C165.296 56.4836 164.606 56.2898 163.456 56.2898L158.803 56.2898ZM161.741 56.835H163.244C164.73 56.835 165.385 57.5544 165.385 59.1879C165.385 59.995 165.192 60.5752 164.802 61.0315C164.413 61.4704 163.935 61.6111 162.943 61.6111H161.741V56.835ZM121.05 59.3457L120.572 60.241C120.006 59.6965 119.528 59.5036 118.768 59.5036C116.68 59.5036 115.264 61.295 115.264 63.911C115.264 66.4747 116.663 68.1965 118.714 68.1965C120.307 68.1965 121.315 67.1771 121.545 65.2984H120.819C120.607 66.8437 119.952 67.6169 118.855 67.6169C117.493 67.6169 116.803 66.37 116.803 63.911C116.803 61.3997 117.583 59.9784 118.91 59.9784C119.989 59.9784 120.642 60.7154 120.961 62.2424H121.351V59.3457L121.05 59.3457ZM152.751 59.3988L152.45 60.1176C151.849 59.7145 151.337 59.5566 150.646 59.5566C149.089 59.5566 147.993 60.5049 147.993 61.8924C147.993 62.9107 148.4 63.4022 149.691 64L150.505 64.3673L151.177 64.6657C152.044 65.0522 152.381 65.4562 152.381 66.053C152.381 66.9492 151.602 67.6341 150.558 67.6341C149.32 67.6341 148.576 66.8617 148.257 65.264L147.87 65.2812V68.2137H148.188L148.611 67.4232C149.284 67.9503 149.921 68.1606 150.735 68.1606C152.398 68.1606 153.584 67.1083 153.584 65.6327C153.584 64.5969 153.105 64.0342 151.761 63.4548L151.018 63.1391C149.407 62.4367 149.143 62.2089 149.143 61.5064C149.143 60.6809 149.868 60.0488 150.805 60.0488C151.92 60.0488 152.504 60.7165 152.663 62.1205H153.071V59.3988H152.751ZM178.904 59.3988C178.198 59.6449 177.595 59.7849 176.568 59.9254V60.2238C176.657 60.2238 176.747 60.241 176.799 60.241C177.685 60.241 177.789 60.3475 177.807 61.0674V61.33V66.7561C177.807 67.5108 177.632 67.652 176.552 67.7044V68.0559C177.473 67.9678 177.843 67.9512 178.462 67.9512C179.099 67.9512 179.454 67.9678 180.374 68.0559V67.7044C179.454 67.6695 179.224 67.4934 179.224 66.7919V62.5409C179.224 61.1011 179.86 60.3472 181.064 60.3472C182.195 60.3472 182.655 60.9613 182.655 62.4892V66.7919C182.655 67.4935 182.425 67.6695 181.47 67.7044V68.0559C182.389 67.9678 182.743 67.9512 183.398 67.9512C184.035 67.9512 184.39 67.9678 185.328 68.0559V67.7044C184.248 67.6521 184.07 67.5108 184.07 66.7561V62.5409C184.07 61.8742 183.982 61.3827 183.804 60.9612C183.451 60.1009 182.531 59.5566 181.47 59.5566C180.445 59.5566 179.718 59.9783 179.08 60.9268C179.044 60.2593 178.993 59.8028 178.904 59.3988V59.3988ZM110.815 59.4333C110.089 59.6435 109.487 59.7497 108.479 59.8378V60.1535H108.709C109.628 60.1709 109.717 60.2595 109.735 61.0143V61.2955V66.7561C109.735 67.5108 109.541 67.6521 108.462 67.7044V68.0559C109.435 67.9678 109.806 67.9497 110.443 67.9497C111.062 67.9497 111.434 67.9678 112.406 68.0559V67.7044C111.328 67.6521 111.15 67.5108 111.15 66.7561V63.086C111.15 61.3469 111.734 60.2424 112.653 60.2424C112.972 60.2424 113.185 60.4167 113.185 60.6628V60.8206L113.149 60.9971C113.132 61.0678 113.115 61.1372 113.115 61.1721C113.115 61.5238 113.433 61.769 113.84 61.769C114.282 61.769 114.583 61.435 114.583 60.9254C114.583 60.0834 113.928 59.5036 113.044 59.5036C112.124 59.5036 111.362 60.0838 110.974 61.0846V60.8909C110.938 60.3639 110.903 60.0834 110.815 59.4333V59.4333ZM104.187 59.5035C102.064 59.5035 100.738 61.2068 100.738 63.911C100.738 66.6152 102.064 68.1965 104.346 68.1965C106.08 68.1965 107.212 67.1245 107.443 65.3156H106.736C106.523 66.8086 105.744 67.6169 104.488 67.6169C102.878 67.6169 102.171 66.3884 102.154 63.6484H107.425C107.39 60.9443 106.275 59.5035 104.187 59.5035ZM126.255 59.5035C124.132 59.5035 122.805 61.2068 122.805 63.911C122.805 66.6152 124.132 68.1965 126.414 68.1965C128.148 68.1965 129.281 67.1245 129.511 65.3156H128.802C128.591 66.8086 127.812 67.6169 126.556 67.6169C124.946 67.6169 124.238 66.3884 124.22 63.6484H129.493C129.457 60.9443 128.343 59.5035 126.255 59.5035ZM143.13 59.5035C141.007 59.5035 139.68 61.2068 139.68 63.911C139.68 66.6152 141.007 68.1965 143.289 68.1965C145.023 68.1965 146.155 67.1245 146.385 65.3156H145.677C145.464 66.8086 144.687 67.6169 143.431 67.6169C141.821 67.6169 141.112 66.3884 141.095 63.6484H146.368C146.332 60.9443 145.217 59.5035 143.13 59.5035V59.5035ZM172.395 59.5035C170.272 59.5035 168.945 61.2068 168.945 63.911C168.945 66.6152 170.272 68.1965 172.554 68.1965C174.288 68.1965 175.42 67.1245 175.65 65.3156H174.942C174.73 66.8086 173.953 67.6169 172.697 67.6169C171.087 67.6169 170.379 66.3884 170.361 63.6484H175.633C175.597 60.9443 174.483 59.5035 172.395 59.5035V59.5035ZM186.617 59.7145L186.208 61.9971H186.564C187.2 60.4168 187.483 60.1707 188.634 60.1707H190.808L186.014 68.0028H192.1L192.561 65.4748H192.19C191.658 67.0725 191.164 67.5466 189.959 67.5466H187.891L192.703 59.7144L186.617 59.7145ZM104.17 59.9598C105.32 59.9598 105.904 60.9433 106.01 63.0157H102.188C102.365 60.9966 103.038 59.9598 104.17 59.9598V59.9598ZM126.237 59.9598C127.387 59.9598 127.97 60.9433 128.077 63.0157H124.255C124.432 60.9966 125.104 59.9598 126.237 59.9598ZM143.113 59.9598C144.263 59.9598 144.846 60.9433 144.953 63.0157H141.131C141.308 60.9966 141.98 59.9598 143.113 59.9598ZM172.378 59.9598C173.528 59.9598 174.111 60.9433 174.218 63.0157H170.396C170.573 60.9966 171.245 59.9598 172.378 59.9598ZM134.339 60.1004C135.648 60.1004 136.32 61.4361 136.32 64.0172C136.32 66.4578 135.666 67.7216 134.392 67.7216C133.118 67.7216 132.446 66.4051 132.446 63.8938C132.446 61.3476 133.065 60.1004 134.339 60.1004V60.1004ZM161.741 62.1563H163.422C164.36 62.1563 164.889 62.3133 165.296 62.7173C165.703 63.1213 165.932 63.8758 165.932 64.7188C165.932 66.4744 165.048 67.4591 163.474 67.4591H162.838C161.9 67.4591 161.741 67.3174 161.741 66.5452V62.1563ZM154.645 62.8522V63.7604H158.598V62.8522H154.645Z" fill="white"/>
</g>
<defs>
<clipPath id="clip0_63_1225">
<rect width="232" height="120" fill="white"/>
</clipPath>
</defs>
</svg>
