<svg width="232" height="120" viewBox="0 0 232 120" fill="none" xmlns="http://www.w3.org/2000/svg">
<g clip-path="url(#clip0_63_1191)">
<g clip-path="url(#clip1_63_1191)">
<path d="M126.813 41.2776C131.052 41.2776 134.49 59.2952 134.49 81.5469H140.675C140.675 57.5906 134.435 38.1982 126.795 38.1982C122.429 38.1982 118.572 44.0086 116.025 53.1366C113.478 44.0086 109.621 38.1982 105.292 38.1982C97.6509 38.1982 91.4292 57.5723 91.4292 81.5286H97.6145C97.6145 59.2769 101.016 41.2776 105.255 41.2776C109.494 41.2776 112.932 57.9205 112.932 78.4493H119.081C119.081 57.9205 122.538 41.2776 126.777 41.2776" fill="white"/>
</g>
</g>
<defs>
<clipPath id="clip0_63_1191">
<rect width="232" height="120" fill="white"/>
</clipPath>
<clipPath id="clip1_63_1191">
<rect width="50" height="44" fill="white" transform="translate(91 38)"/>
</clipPath>
</defs>
</svg>
